<mxfile host="app.diagrams.net" modified="2023-06-28T09:50:35.771Z" agent="Mozilla/5.0 (X11; Ubuntu; Linux x86_64; rv:109.0) Gecko/20100101 Firefox/110.0" etag="b5JlvF71kzbAHsCUWRJp" version="21.5.1" type="github">
  <diagram name="Page-1" id="eAORNDjTatpmmDQEdT6R">
    <mxGraphModel dx="1360" dy="763" grid="1" gridSize="10" guides="1" tooltips="1" connect="1" arrows="1" fold="1" page="1" pageScale="1" pageWidth="850" pageHeight="1100" math="0" shadow="0">
      <root>
        <mxCell id="0" />
        <mxCell id="1" parent="0" />
        <mxCell id="4YvOIzgGyg2Sljeb-_Ex-1" value="" style="rounded=0;whiteSpace=wrap;html=1;sketch=1;hachureGap=4;jiggle=2;curveFitting=1;fontFamily=Architects Daughter;fontSource=https%3A%2F%2Ffonts.googleapis.com%2Fcss%3Ffamily%3DArchitects%2BDaughter;fontSize=20;" parent="1" vertex="1">
          <mxGeometry x="360" y="370" width="120" height="60" as="geometry" />
        </mxCell>
        <mxCell id="4YvOIzgGyg2Sljeb-_Ex-2" value="&lt;font face=&quot;Helvetica&quot;&gt;mongoDB server / database pizzeria&lt;br&gt;&lt;/font&gt;" style="rounded=0;whiteSpace=wrap;html=1;hachureGap=4;fontFamily=Architects Daughter;fontSource=https%3A%2F%2Ffonts.googleapis.com%2Fcss%3Ffamily%3DArchitects%2BDaughter;fontSize=20;fillColor=#76608a;fontColor=#ffffff;strokeColor=#432D57;verticalAlign=top;" parent="1" vertex="1">
          <mxGeometry x="30" y="20" width="810" height="810" as="geometry" />
        </mxCell>
        <mxCell id="4YvOIzgGyg2Sljeb-_Ex-3" value="&lt;font face=&quot;Helvetica&quot;&gt;Customers&lt;/font&gt;" style="rounded=0;whiteSpace=wrap;html=1;hachureGap=4;fontFamily=Architects Daughter;fontSource=https%3A%2F%2Ffonts.googleapis.com%2Fcss%3Ffamily%3DArchitects%2BDaughter;fontSize=20;fillColor=#fa6800;fontColor=#000000;strokeColor=#C73500;verticalAlign=top;" parent="1" vertex="1">
          <mxGeometry x="50" y="80" width="220" height="200" as="geometry" />
        </mxCell>
        <mxCell id="4YvOIzgGyg2Sljeb-_Ex-4" value="&lt;div&gt;Orders&lt;/div&gt;&lt;div&gt;&lt;br&gt;&lt;/div&gt;&lt;div align=&quot;left&quot;&gt;{ products : [&lt;/div&gt;&lt;div align=&quot;left&quot;&gt;{array} &lt;br&gt;&lt;/div&gt;&lt;div align=&quot;left&quot;&gt;]&lt;br&gt;&lt;/div&gt;&lt;div align=&quot;left&quot;&gt;},&lt;br&gt;&lt;/div&gt;&lt;div align=&quot;left&quot;&gt;&lt;font style=&quot;font-size: 19px;&quot;&gt;getCustomerById&lt;/font&gt;&lt;br&gt;&lt;/div&gt;" style="rounded=0;whiteSpace=wrap;html=1;hachureGap=4;fontFamily=Helvetica;fontSize=20;fillColor=#fa6800;fontColor=#000000;strokeColor=#C73500;verticalAlign=top;" parent="1" vertex="1">
          <mxGeometry x="70" y="350" width="250" height="270" as="geometry" />
        </mxCell>
      </root>
    </mxGraphModel>
  </diagram>
</mxfile>
